<?xml version="1.0" standalone="no"?>
<!DOCTYPE svg PUBLIC "-//W3C//DTD SVG 20010904//EN"
 "http://www.w3.org/TR/2001/REC-SVG-20010904/DTD/svg10.dtd">
<svg version="1.0" xmlns="http://www.w3.org/2000/svg"
 width="221.000000pt" height="228.000000pt" viewBox="0 0 221.000000 228.000000"
 preserveAspectRatio="xMidYMid meet">

<g transform="translate(0.000000,228.000000) scale(0.100000,-0.100000)"
fill="#000000" stroke="none">
<path d="M2149 2273 c-1 -5 -1 -12 0 -17 1 -4 -12 -6 -29 -4 -16 3 -30 1 -30
-4 0 -5 -4 -7 -9 -4 -5 4 -11 2 -13 -4 -2 -6 -13 -12 -26 -15 -30 -5 -56 -31
-41 -40 6 -4 16 -2 22 4 6 6 21 11 33 11 12 0 24 5 26 11 2 6 14 8 31 4 15 -4
24 -11 21 -16 -3 -6 -14 -7 -25 -4 -10 4 -19 2 -19 -3 0 -5 -20 -13 -44 -16
-31 -5 -47 -13 -51 -25 -4 -14 -29 -25 -98 -41 -107 -26 -117 -31 -91 -42 13
-6 10 -7 -13 -3 -24 3 -33 1 -33 -10 0 -12 18 -13 103 -9 56 2 123 9 149 15
32 7 52 7 66 0 14 -7 36 -7 76 1 55 12 56 13 56 46 l0 34 -42 -7 c-24 -4 -55
-8 -69 -11 -18 -2 -26 1 -26 11 0 10 11 15 31 14 17 0 48 3 69 7 33 5 37 10
37 35 0 21 -4 27 -15 23 -8 -4 -27 -3 -41 0 -25 7 -26 8 -8 21 11 8 29 15 42
15 13 0 22 6 22 15 0 10 -10 15 -30 15 -16 0 -31 -3 -31 -7z m-129 -127 c0 -3
-4 -8 -10 -11 -5 -3 -10 -1 -10 4 0 6 5 11 10 11 6 0 10 -2 10 -4z m-65 -67
c-91 -21 -119 -23 -110 -9 3 6 17 10 30 10 13 0 26 3 29 8 2 4 33 8 68 8 l63
2 -80 -19z"/>
<path d="M0 2207 c0 -27 4 -33 25 -35 13 -1 28 -2 32 -3 27 -4 33 2 23 21 -9
17 -58 50 -75 50 -3 0 -5 -15 -5 -33z"/>
<path d="M120 2136 c0 -2 7 -7 16 -10 8 -3 12 -2 9 4 -6 10 -25 14 -25 6z"/>
<path d="M75 2086 c-20 -15 -20 -15 0 -15 11 -1 37 -4 58 -7 30 -5 37 -3 37
10 0 10 -9 16 -24 16 -13 0 -30 2 -38 5 -7 3 -22 -1 -33 -9z"/>
<path d="M1718 2043 c7 -3 16 -2 19 1 4 3 -2 6 -13 5 -11 0 -14 -3 -6 -6z"/>
<path d="M2048 2043 c7 -3 16 -2 19 1 4 3 -2 6 -13 5 -11 0 -14 -3 -6 -6z"/>
<path d="M2158 2043 c7 -3 16 -2 19 1 4 3 -2 6 -13 5 -11 0 -14 -3 -6 -6z"/>
<path d="M2008 2033 c7 -3 16 -2 19 1 4 3 -2 6 -13 5 -11 0 -14 -3 -6 -6z"/>
<path d="M1533 1982 c-16 -10 -43 -87 -43 -123 0 -30 -23 -49 -59 -49 -15 0
-19 5 -16 21 3 12 11 29 18 38 8 9 17 23 21 31 4 8 -2 4 -13 -10 l-21 -25 10
29 c16 43 22 50 31 35 6 -10 9 -10 9 -2 0 6 -5 15 -11 19 -16 10 -47 -34 -55
-76 -3 -19 -14 -41 -23 -49 -15 -13 -15 -13 2 -8 14 5 17 0 17 -26 0 -37 24
-77 46 -77 19 0 18 31 -2 56 -15 18 -15 18 -5 -3 16 -33 12 -52 -4 -21 -19 33
-12 51 24 64 25 10 29 9 38 -17 13 -35 25 -36 53 -7 l21 23 6 -23 c6 -26 16
-28 33 -7 11 13 15 13 22 3 6 -10 10 -10 18 2 12 18 13 33 2 26 -4 -2 -6 11
-4 30 3 21 0 34 -7 34 -6 0 -11 -10 -11 -22 -1 -13 -7 -34 -15 -48 -12 -22
-14 -23 -20 -7 -4 10 -5 31 -1 47 7 39 -10 39 -19 1 -7 -33 -39 -66 -54 -56
-14 8 -14 82 -1 90 6 3 10 11 10 16 0 6 -4 8 -10 4 -12 -7 9 56 23 70 7 7 8 4
3 -7 -15 -44 -15 -51 1 -20 17 33 9 58 -14 44z"/>
<path d="M661 1966 c-6 -7 -18 -44 -26 -80 -14 -67 -37 -116 -55 -116 -13 0
-13 20 1 58 8 24 8 39 -3 62 -15 36 -26 39 -25 8 0 -13 -3 -32 -7 -43 -6 -15
-4 -15 6 3 20 33 29 16 12 -23 -30 -72 -8 -107 37 -58 l27 31 11 -24 c12 -28
33 -31 52 -8 11 14 13 14 21 0 6 -11 17 -14 34 -10 14 4 24 2 24 -5 0 -18 18
-13 40 11 18 19 22 20 30 8 7 -12 13 -11 34 10 l26 23 0 -26 c0 -34 13 -34 45
0 22 25 25 26 25 8 0 -11 5 -27 11 -35 8 -12 9 -9 5 13 -7 29 17 87 35 87 22
0 22 -34 1 -48 -25 -17 -30 -52 -7 -52 9 0 21 12 28 28 6 15 19 33 27 40 13
12 13 13 -2 9 -10 -4 -18 1 -21 14 -7 26 -32 24 -51 -3 -14 -19 -16 -20 -16
-5 0 10 11 33 25 51 14 18 25 37 25 42 0 5 -9 -4 -20 -21 -15 -22 -20 -25 -20
-12 0 30 20 59 36 53 9 -3 12 -1 9 4 -21 33 -65 -25 -65 -86 0 -15 -10 -43
-22 -63 l-23 -36 -3 33 c-2 17 -5 32 -8 32 -3 0 -16 -12 -29 -27 -29 -35 -41
-25 -25 22 7 20 9 39 5 43 -4 4 -10 2 -12 -4 -14 -40 -50 -97 -58 -93 -5 2
-10 22 -10 44 0 34 -4 41 -22 43 -16 2 -28 -7 -47 -37 -30 -48 -45 -58 -57
-40 -14 23 -10 57 11 99 23 45 27 68 5 30 -17 -30 -20 -11 -3 25 8 18 14 22
20 13 6 -10 8 -8 8 5 0 20 -23 23 -39 3z m109 -121 c0 -21 -22 -65 -32 -65 -9
0 -2 54 9 73 7 12 23 8 23 -8z m254 -60 c-4 -8 -8 -15 -10 -15 -2 0 -4 7 -4
15 0 8 4 15 10 15 5 0 7 -7 4 -15z"/>
<path d="M1208 1959 c-36 -45 -31 -178 7 -193 8 -3 22 3 32 12 11 9 13 13 6 8
-49 -33 -69 103 -25 172 12 19 39 4 51 -26 6 -18 10 -21 10 -9 1 19 -33 57
-51 57 -7 0 -21 -10 -30 -21z"/>
<path d="M386 1963 c-11 -12 -7 -178 6 -191 23 -23 40 -11 68 51 l29 62 1 -47
c0 -57 8 -78 27 -78 13 0 13 3 2 16 -8 10 -13 41 -12 85 0 38 -3 69 -7 69 -4
0 -18 -27 -30 -59 -49 -122 -74 -118 -67 12 3 73 -1 95 -17 80z"/>
<path d="M1331 1919 c-37 -61 -34 -191 5 -206 30 -11 38 14 16 51 -19 32 -19
35 -4 39 12 3 10 5 -5 6 -30 1 -29 24 2 65 30 39 34 58 5 25 -17 -21 -19 -21
-13 -4 3 11 13 28 21 38 10 11 11 17 3 17 -6 0 -20 -14 -30 -31z m29 -193 c0
-6 -7 -2 -15 8 -8 11 -15 25 -15 30 0 6 7 2 15 -8 8 -11 15 -25 15 -30z"/>
<path d="M1090 1916 c-8 -11 -9 -20 -1 -33 9 -16 10 -15 11 10 0 17 5 27 15
27 8 0 15 -4 15 -9 0 -5 -7 -25 -15 -44 -8 -20 -15 -43 -15 -52 0 -21 15 -19
17 3 0 9 6 31 13 48 21 51 -8 87 -40 50z"/>
<path d="M1870 1863 c0 -36 2 -64 4 -62 9 11 15 129 6 129 -6 0 -10 -30 -10
-67z"/>
<path d="M1585 1900 c3 -5 8 -10 11 -10 2 0 4 5 4 10 0 6 -5 10 -11 10 -5 0
-7 -4 -4 -10z"/>
<path d="M1670 1861 c-5 -11 -10 -26 -9 -33 0 -7 5 -1 11 15 16 45 25 31 14
-23 -11 -55 -4 -72 21 -47 16 15 18 15 35 0 17 -15 20 -15 45 3 14 11 33 31
41 44 9 15 1 9 -21 -13 -35 -37 -57 -42 -57 -11 0 8 4 14 8 14 5 0 17 7 28 16
18 15 18 15 -3 5 -37 -18 -44 -10 -19 24 12 17 16 18 32 5 18 -13 18 -13 2 4
-23 26 -45 14 -68 -39 -11 -25 -22 -45 -26 -45 -3 0 -3 23 1 50 6 42 4 50 -9
50 -8 0 -20 -9 -26 -19z"/>
<path d="M1281 1853 c-1 -6 -4 -20 -7 -30 -5 -17 -5 -17 6 0 6 10 9 23 6 30
-3 9 -5 9 -5 0z"/>
<path d="M1100 1770 c0 -5 5 -10 10 -10 6 0 10 5 10 10 0 6 -4 10 -10 10 -5 0
-10 -4 -10 -10z"/>
<path d="M1860 1770 c0 -5 5 -10 10 -10 6 0 10 5 10 10 0 6 -4 10 -10 10 -5 0
-10 -4 -10 -10z"/>
<path d="M2160 1700 c0 -12 8 -12 35 0 18 8 17 9 -7 9 -16 1 -28 -3 -28 -9z"/>
<path d="M495 1680 c-3 -5 -1 -10 4 -10 6 0 11 5 11 10 0 6 -2 10 -4 10 -3 0
-8 -4 -11 -10z"/>
<path d="M523 1677 c-4 -8 -17 -17 -28 -19 -15 -3 -12 -5 11 -9 26 -4 30 -2
26 13 -5 22 15 24 21 3 4 -12 5 -11 3 1 -1 23 -22 29 -33 11z"/>
<path d="M583 1674 c-3 -8 -2 -19 3 -24 5 -5 9 1 9 16 0 28 -3 30 -12 8z"/>
<path d="M617 1669 c4 -13 8 -18 11 -10 2 7 -1 18 -6 23 -8 8 -9 4 -5 -13z"/>
<path d="M752 1665 c0 -16 2 -22 5 -12 2 9 2 23 0 30 -3 6 -5 -1 -5 -18z"/>
<path d="M861 1663 c0 -16 3 -22 6 -16 2 7 4 15 3 19 -1 4 4 11 12 15 10 7 9
9 -4 9 -13 0 -18 -8 -17 -27z"/>
<path d="M1042 1665 c0 -16 2 -22 5 -12 2 9 2 23 0 30 -3 6 -5 -1 -5 -18z"/>
<path d="M1530 1666 c0 -31 6 -34 13 -6 3 11 1 23 -4 26 -5 3 -9 -6 -9 -20z"/>
<path d="M1572 1665 c0 -16 2 -22 5 -12 2 9 2 23 0 30 -3 6 -5 -1 -5 -18z"/>
<path d="M1593 1667 c-2 -16 0 -18 6 -8 7 11 10 10 13 -5 2 -12 6 -15 10 -8 4
6 0 19 -10 27 -16 15 -18 15 -19 -6z"/>
<path d="M643 1665 c-3 -9 -3 -18 -1 -21 3 -3 8 4 11 16 6 23 -1 27 -10 5z"/>
<path d="M672 1660 c0 -14 2 -19 5 -12 2 6 2 18 0 25 -3 6 -5 1 -5 -13z"/>
<path d="M693 1665 c-3 -9 -3 -19 1 -22 3 -4 6 2 6 11 0 12 5 16 16 12 8 -3
12 -2 9 4 -9 15 -25 12 -32 -5z"/>
<path d="M1407 1660 c4 -13 0 -26 -8 -32 -12 -8 -11 -9 1 -5 18 5 26 35 11 50
-7 7 -8 3 -4 -13z"/>
<path d="M1456 1673 c6 -4 14 -15 17 -23 5 -11 6 -9 4 4 -1 11 -9 21 -17 23
-10 3 -11 2 -4 -4z"/>
<path d="M1637 1669 c7 -7 15 -10 18 -7 3 3 -2 9 -12 12 -14 6 -15 5 -6 -5z"/>
<path d="M1676 1671 c-9 -14 18 -31 42 -24 24 6 28 18 10 29 -6 4 -17 -1 -25
-11 -12 -17 -18 -14 -14 8 1 10 -7 9 -13 -2z"/>
<path d="M1755 1669 c-4 -5 -4 -13 -1 -16 3 -4 6 0 7 8 0 8 4 6 9 -6 7 -16 9
-17 9 -3 1 21 -15 32 -24 17z"/>
<path d="M801 1654 c0 -11 3 -14 6 -6 3 7 2 16 -1 19 -3 4 -6 -2 -5 -13z"/>
<path d="M901 1654 c0 -11 3 -14 6 -6 3 7 2 16 -1 19 -3 4 -6 -2 -5 -13z"/>
<path d="M1171 1654 c0 -11 3 -14 6 -6 3 7 2 16 -1 19 -3 4 -6 -2 -5 -13z"/>
<path d="M1251 1654 c0 -11 3 -14 6 -6 3 7 2 16 -1 19 -3 4 -6 -2 -5 -13z"/>
<path d="M1321 1654 c0 -11 3 -14 6 -6 3 7 2 16 -1 19 -3 4 -6 -2 -5 -13z"/>
<path d="M1341 1654 c0 -11 3 -14 6 -6 3 7 2 16 -1 19 -3 4 -6 -2 -5 -13z"/>
<path d="M1380 1661 c0 -6 4 -13 10 -16 6 -3 7 1 4 9 -7 18 -14 21 -14 7z"/>
<path d="M1511 1654 c0 -11 3 -14 6 -6 3 7 2 16 -1 19 -3 4 -6 -2 -5 -13z"/>
<path d="M1458 1553 c-21 -2 -38 -8 -38 -12 0 -8 118 4 127 13 6 6 -23 6 -89
-1z"/>
<path d="M350 1538 c-30 -4 -121 -5 -202 -3 -100 3 -148 1 -148 -6 0 -7 96 -9
304 -8 262 2 302 4 290 17 -15 14 -132 15 -244 0z"/>
<path d="M1065 1540 c46 -12 173 -12 155 0 -8 5 -53 9 -100 9 -60 -1 -76 -4
-55 -9z"/>
<path d="M1275 1540 c3 -5 12 -7 20 -3 21 7 19 13 -6 13 -11 0 -18 -4 -14 -10z"/>
<path d="M1978 1543 c12 -2 32 -2 45 0 12 2 2 4 -23 4 -25 0 -35 -2 -22 -4z"/>
<path d="M718 1533 c18 -2 45 -2 60 0 15 2 0 4 -33 4 -33 0 -45 -2 -27 -4z"/>
<path d="M1818 1533 c12 -2 30 -2 40 0 9 3 -1 5 -23 4 -22 0 -30 -2 -17 -4z"/>
<path d="M2173 1523 c9 -2 23 -2 30 0 6 3 -1 5 -18 5 -16 0 -22 -2 -12 -5z"/>
<path d="M511 1474 c0 -11 3 -14 6 -6 3 7 2 16 -1 19 -3 4 -6 -2 -5 -13z"/>
<path d="M541 1474 c0 -11 3 -14 6 -6 3 7 2 16 -1 19 -3 4 -6 -2 -5 -13z"/>
<path d="M873 1403 c9 -2 23 -2 30 0 6 3 -1 5 -18 5 -16 0 -22 -2 -12 -5z"/>
<path d="M1948 1328 c5 -5 16 -8 23 -6 8 3 3 7 -10 11 -17 4 -21 3 -13 -5z"/>
<path d="M1440 1266 c-7 -14 -21 -26 -31 -26 -13 0 -20 -11 -25 -36 -8 -41 -3
-46 51 -62 76 -21 85 -23 85 -17 0 16 -28 31 -52 28 -22 -3 -25 0 -21 17 3 13
0 20 -8 20 -25 0 14 20 39 20 13 0 20 4 17 10 -3 5 -1 19 5 31 14 24 13 25
-21 34 -20 5 -28 1 -39 -19z"/>
<path d="M1620 1241 c0 -31 -11 -51 -29 -51 -12 0 -17 -11 -18 -43 -3 -40 -1
-44 30 -55 46 -17 47 -16 47 23 0 33 2 35 33 35 27 1 30 3 17 13 -9 7 -14 25
-12 45 2 23 -1 32 -10 30 -7 -1 -23 3 -35 10 -20 11 -23 10 -23 -7z"/>
<path d="M2017 1202 c-23 -52 -23 -52 21 -51 20 1 29 3 19 6 -14 4 -17 10 -12
26 18 62 -3 76 -28 19z"/>
<path d="M221 1205 c1 -11 -1 -27 -4 -35 -3 -8 -7 -34 -9 -58 l-4 -42 41 4
c72 7 75 11 75 85 l0 67 -50 0 c-45 0 -51 -2 -49 -21z"/>
<path d="M835 1220 c3 -5 14 -10 23 -10 15 0 15 2 2 10 -20 13 -33 13 -25 0z"/>
<path d="M1106 1202 c-3 -6 -2 -13 4 -17 18 -11 10 -25 -15 -25 -14 0 -25 -4
-25 -10 0 -5 23 -10 50 -10 50 0 67 13 30 23 -11 3 -24 15 -28 28 -5 14 -11
18 -16 11z"/>
<path d="M1130 1190 c0 -5 5 -10 10 -10 6 0 10 5 10 10 0 6 -4 10 -10 10 -5 0
-10 -4 -10 -10z"/>
<path d="M1962 1154 c2 -22 7 -39 12 -39 15 0 13 68 -2 73 -10 3 -13 -6 -10
-34z"/>
<path d="M830 1170 c8 -5 26 -10 39 -10 32 0 24 6 -19 14 -25 4 -31 3 -20 -4z"/>
<path d="M891 1143 c-1 -7 -13 -13 -27 -13 -14 0 -23 -4 -19 -10 7 -12 105 -2
120 12 7 6 7 9 0 7 -5 -1 -18 1 -29 6 -11 5 -21 3 -26 -5 -6 -10 -9 -9 -13 1
-4 10 -6 10 -6 2z"/>
<path d="M1072 1108 c-15 -6 -15 -7 -1 -7 9 -1 29 -7 43 -15 14 -7 38 -11 53
-8 22 4 24 6 9 11 -9 4 -18 11 -19 15 -2 11 -61 14 -85 4z"/>
<path d="M1796 1092 c5 -25 3 -32 -10 -32 -13 0 -16 -10 -16 -50 0 -36 -5 -52
-17 -59 -17 -10 -17 -10 0 -11 9 0 17 5 17 11 0 7 10 5 25 -5 24 -16 25 -16
25 5 0 13 -8 31 -17 42 -17 18 -17 18 9 6 15 -6 29 -21 31 -33 4 -20 4 -20 6
2 2 31 18 28 23 -5 5 -36 -1 -63 -13 -63 -5 0 -9 8 -9 18 -1 16 -1 16 -11 0
-6 -11 -16 -15 -26 -11 -11 4 -14 3 -9 -5 4 -7 16 -12 27 -12 10 0 19 -4 19
-10 0 -5 16 -10 35 -10 21 0 38 -6 41 -13 3 -8 11 -14 19 -14 8 0 12 4 9 8 -2
4 2 10 8 12 7 3 3 6 -10 6 -13 1 -21 5 -18 10 4 5 2 20 -3 33 -7 17 -10 18
-10 6 -1 -21 -27 -24 -34 -4 -3 7 -1 18 5 24 6 6 6 12 -1 16 -20 13 -13 39 9
33 22 -6 25 0 10 23 -5 8 -10 10 -10 4 0 -6 -11 -11 -25 -11 -21 0 -26 5 -31
38 -4 21 -17 48 -30 60 l-24 23 6 -32z m14 -46 c0 -3 -4 -8 -10 -11 -5 -3 -10
-1 -10 4 0 6 5 11 10 11 6 0 10 -2 10 -4z"/>
<path d="M1683 1097 c-13 -5 -23 -14 -23 -19 0 -10 50 -5 51 5 1 19 -8 23 -28
14z"/>
<path d="M1997 1096 c-8 -20 1 -25 57 -32 49 -7 59 3 29 27 -11 10 -17 11 -20
3 -4 -13 -44 -6 -54 8 -3 6 -9 3 -12 -6z"/>
<path d="M911 942 c-6 -2 -11 -11 -11 -20 0 -15 2 -15 10 -2 9 13 10 13 10 0
0 -12 2 -12 9 -2 4 8 12 13 17 12 5 -1 10 3 12 9 3 9 -22 11 -47 3z"/>
<path d="M1928 943 c7 -3 16 -2 19 1 4 3 -2 6 -13 5 -11 0 -14 -3 -6 -6z"/>
<path d="M560 915 c0 -8 5 -15 10 -15 6 0 10 7 10 15 0 8 -4 15 -10 15 -5 0
-10 -7 -10 -15z"/>
<path d="M819 902 c6 -12 16 -24 22 -28 8 -4 8 -1 0 14 -6 12 -16 24 -22 28
-8 4 -8 1 0 -14z"/>
<path d="M462 893 c9 -10 18 -27 21 -38 4 -16 5 -15 6 6 1 25 -15 49 -33 49
-5 0 -2 -8 6 -17z"/>
<path d="M905 889 c-4 -6 -5 -13 -2 -16 7 -7 27 6 27 18 0 12 -17 12 -25 -2z"/>
<path d="M981 889 c-1 -10 -13 -19 -33 -23 -73 -14 -108 -28 -108 -40 0 -10
12 -9 53 5 28 10 60 18 70 19 19 0 32 22 24 42 -4 9 -6 8 -6 -3z"/>
<path d="M555 879 c-4 -6 -5 -13 -2 -16 7 -7 27 6 27 18 0 12 -17 12 -25 -2z"/>
<path d="M1799 853 c-13 -16 -12 -17 4 -4 16 13 21 21 13 21 -2 0 -10 -8 -17
-17z"/>
<path d="M2003 863 c-27 -5 -29 -16 -8 -33 12 -10 16 -9 21 4 3 9 11 13 17 9
5 -3 7 -1 3 5 -3 5 0 13 6 15 16 7 -7 6 -39 0z"/>
<path d="M550 843 c-58 -15 -88 -33 -56 -33 25 0 129 30 141 41 13 13 -20 10
-85 -8z"/>
<path d="M815 850 c-3 -5 -1 -10 4 -10 6 0 11 5 11 10 0 6 -2 10 -4 10 -3 0
-8 -4 -11 -10z"/>
<path d="M2057 829 c7 -7 15 -10 18 -7 3 3 -2 9 -12 12 -14 6 -15 5 -6 -5z"/>
<path d="M2135 830 c-3 -5 -1 -10 4 -10 6 0 11 5 11 10 0 6 -2 10 -4 10 -3 0
-8 -4 -11 -10z"/>
<path d="M765 820 c-3 -5 -1 -10 4 -10 6 0 11 5 11 10 0 6 -2 10 -4 10 -3 0
-8 -4 -11 -10z"/>
<path d="M790 826 c0 -17 52 -77 63 -73 7 2 21 0 32 -6 11 -6 27 -12 35 -13 8
0 22 -3 30 -5 8 -2 15 2 16 9 1 6 3 14 4 17 1 3 3 11 4 18 0 6 9 12 18 12 9 0
20 4 24 8 13 12 -49 8 -100 -8 -62 -19 -66 -19 -66 3 0 14 -2 15 -10 2 -8 -13
-10 -12 -10 4 0 11 -3 16 -7 13 -3 -4 -12 1 -19 11 -7 9 -14 13 -14 8z"/>
<path d="M425 803 c11 -2 26 -17 33 -33 8 -16 17 -29 20 -29 21 3 24 -3 6 -17
-10 -8 -14 -13 -8 -10 6 3 23 -2 39 -10 24 -13 26 -12 15 1 -11 13 -8 15 21
16 19 1 42 1 51 0 10 -1 18 7 20 21 2 14 12 25 28 29 22 5 23 7 7 14 -11 4
-45 0 -82 -10 -66 -17 -87 -14 -115 19 -7 9 -22 15 -34 15 -20 -2 -20 -2 -1
-6z"/>
<path d="M1955 780 c-3 -6 1 -7 9 -4 18 7 21 14 7 14 -6 0 -13 -4 -16 -10z"/>
<path d="M820 736 c0 -9 50 -12 62 -5 8 6 -1 9 -24 9 -21 0 -38 -2 -38 -4z"/>
<path d="M728 573 c7 -3 16 -2 19 1 4 3 -2 6 -13 5 -11 0 -14 -3 -6 -6z"/>
<path d="M526 558 c3 -5 10 -6 15 -3 13 9 11 12 -6 12 -8 0 -12 -4 -9 -9z"/>
<path d="M944 551 c-2 -3 -1 -34 2 -69 5 -48 4 -63 -4 -58 -7 4 -12 33 -12 67
l0 61 -62 -4 -63 -3 -6 -42 c-3 -24 -2 -43 3 -43 4 0 8 -7 8 -15 0 -8 -4 -15
-9 -15 -6 0 -7 -46 -4 -111 6 -122 -5 -164 -39 -153 -12 3 -18 0 -18 -10 0 -9
-4 -16 -10 -16 -5 0 -10 -4 -10 -10 0 -14 29 -12 44 3 7 6 18 21 25 32 12 19
12 19 6 -2 -5 -18 -2 -20 15 -16 13 4 20 1 20 -9 0 -16 -34 -51 -42 -43 -2 3
-5 -2 -5 -10 0 -18 14 -20 19 -3 3 7 12 9 23 4 14 -5 16 -9 7 -18 -14 -14 -16
-32 -3 -24 5 4 12 0 14 -6 3 -8 6 -6 6 5 1 16 11 21 38 18 15 -2 55 18 64 31
3 5 9 3 12 -6 4 -9 3 -15 -1 -14 -15 4 -103 -45 -99 -56 5 -15 69 -14 75 2 2
6 -4 12 -14 12 -9 0 -15 3 -11 6 10 10 47 -7 47 -22 0 -18 24 -18 39 0 9 11 8
14 -6 12 -10 0 -17 5 -15 12 1 8 -2 11 -8 7 -5 -3 -10 -1 -10 5 0 8 10 9 30 5
19 -4 30 -3 30 4 0 6 -8 11 -17 12 -10 0 -4 5 12 10 17 5 38 6 48 3 9 -3 17
-1 17 5 0 5 8 12 18 14 10 3 4 5 -13 6 l-30 2 26 14 c20 11 25 20 22 38 -4 22
-2 23 29 19 18 -3 36 -10 40 -16 4 -6 9 -8 12 -5 6 6 -86 109 -97 109 -4 0 -7
-7 -7 -15 0 -8 7 -15 15 -15 8 0 15 -4 15 -9 0 -5 7 -17 16 -25 8 -9 11 -16 5
-16 -6 0 -19 9 -28 20 -13 14 -19 16 -25 7 -7 -11 -9 7 -13 148 -3 78 -4 87
-15 80 -6 -4 -10 17 -10 54 0 47 -3 61 -15 61 -12 0 -13 -12 -9 -67 4 -50 3
-64 -5 -53 -6 8 -11 38 -11 66 0 49 -1 52 -26 50 -14 0 -28 -3 -30 -5z m-32
-113 c3 -100 2 -116 -6 -107 -8 10 -14 209 -6 209 5 0 10 -46 12 -102z m81
-85 c4 -7 3 -14 -2 -17 -9 -6 -20 68 -22 149 -2 77 4 59 11 -31 3 -49 10 -95
13 -101z m-126 65 c-2 -24 -4 -7 -4 37 0 44 2 63 4 43 2 -21 2 -57 0 -80z
m-27 38 c0 -51 -6 -43 -14 19 -5 36 -4 46 3 35 6 -8 11 -33 11 -54z m113 -93
c4 -19 2 -33 -3 -33 -6 0 -10 17 -10 37 0 43 5 41 13 -4z m-113 -23 c0 -11 -4
-20 -9 -20 -5 0 -7 9 -4 20 3 11 7 20 9 20 2 0 4 -9 4 -20z m190 10 c0 -5 -4
-10 -10 -10 -5 0 -10 5 -10 10 0 6 5 10 10 10 6 0 10 -4 10 -10z m-150 -15 c0
-8 -4 -15 -10 -15 -5 0 -10 7 -10 15 0 8 5 15 10 15 6 0 10 -7 10 -15z m213
-174 c3 -15 1 -18 -11 -14 -9 4 -13 2 -9 -4 4 -7 0 -10 -10 -9 -9 2 -19 9 -21
17 -3 11 -2 12 6 1 7 -11 10 -9 15 7 7 26 23 27 30 2z m-53 -51 c0 -5 -8 -10
-17 -10 -15 0 -16 2 -3 10 19 12 20 12 20 0z"/>
<path d="M1620 539 c0 -5 5 -7 10 -4 6 3 10 8 10 11 0 2 -4 4 -10 4 -5 0 -10
-5 -10 -11z"/>
<path d="M1938 493 c7 -3 16 -2 19 1 4 3 -2 6 -13 5 -11 0 -14 -3 -6 -6z"/>
<path d="M395 480 c-3 -6 1 -7 9 -4 18 7 21 14 7 14 -6 0 -13 -4 -16 -10z"/>
<path d="M667 456 c-4 -10 -1 -13 8 -9 8 3 12 9 9 14 -7 12 -11 11 -17 -5z"/>
<path d="M258 453 c7 -3 16 -2 19 1 4 3 -2 6 -13 5 -11 0 -14 -3 -6 -6z"/>
<path d="M558 433 c7 -3 16 -2 19 1 4 3 -2 6 -13 5 -11 0 -14 -3 -6 -6z"/>
<path d="M1460 431 c0 -4 11 -6 25 -3 14 2 25 6 25 8 0 2 -11 4 -25 4 -14 0
-25 -4 -25 -9z"/>
<path d="M1700 433 c0 -6 -12 -16 -27 -21 -16 -6 -21 -11 -12 -11 20 -1 56 25
46 35 -4 4 -7 2 -7 -3z"/>
<path d="M1890 420 c0 -7 -7 -9 -17 -5 -14 5 -15 3 -6 -5 7 -8 17 -9 28 -2 12
6 14 11 6 16 -6 4 -11 2 -11 -4z"/>
<path d="M1360 410 c0 -5 5 -10 10 -10 6 0 10 5 10 10 0 6 -4 10 -10 10 -5 0
-10 -4 -10 -10z"/>
<path d="M1929 403 c-12 -15 -12 -16 4 -10 10 4 23 7 28 7 6 0 7 5 4 10 -9 15
-21 12 -36 -7z"/>
<path d="M1245 400 c-3 -6 1 -7 9 -4 18 7 21 14 7 14 -6 0 -13 -4 -16 -10z"/>
<path d="M1461 391 c-7 -5 -9 -11 -5 -14 5 -3 15 1 22 9 14 16 5 18 -17 5z"/>
<path d="M1750 396 c0 -2 7 -7 16 -10 8 -3 12 -2 9 4 -6 10 -25 14 -25 6z"/>
<path d="M1175 380 c3 -5 11 -10 16 -10 6 0 7 5 4 10 -3 6 -11 10 -16 10 -6 0
-7 -4 -4 -10z"/>
<path d="M1719 373 c-13 -16 -12 -17 4 -4 16 13 21 21 13 21 -2 0 -10 -8 -17
-17z"/>
<path d="M1575 370 c-19 -8 -19 -9 2 -9 12 -1 25 4 28 9 7 12 -2 12 -30 0z"/>
<path d="M2160 376 c0 -2 9 -6 20 -9 11 -3 18 -1 14 4 -5 9 -34 13 -34 5z"/>
<path d="M1150 359 c0 -5 5 -7 10 -4 6 3 10 8 10 11 0 2 -4 4 -10 4 -5 0 -10
-5 -10 -11z"/>
<path d="M1208 353 c7 -3 16 -2 19 1 4 3 -2 6 -13 5 -11 0 -14 -3 -6 -6z"/>
<path d="M700 339 c0 -5 5 -7 10 -4 6 3 10 8 10 11 0 2 -4 4 -10 4 -5 0 -10
-5 -10 -11z"/>
<path d="M1644 335 c6 -17 -9 -21 -19 -5 -3 6 -11 10 -18 10 -6 0 -1 -7 12
-16 20 -15 25 -15 38 -2 13 14 13 16 -2 22 -13 4 -16 2 -11 -9z"/>
<path d="M2032 338 c5 -15 28 -23 28 -10 0 5 -7 13 -16 16 -10 4 -14 1 -12 -6z"/>
<path d="M2116 339 c2 -4 14 -9 26 -12 13 -2 30 -7 38 -11 11 -4 16 -1 16 12
0 15 -8 18 -42 18 -23 -1 -40 -4 -38 -7z"/>
<path d="M1460 325 c-7 -9 -8 -15 -2 -15 5 0 12 7 16 15 3 8 4 15 2 15 -2 0
-9 -7 -16 -15z"/>
<path d="M1922 304 c-1 -14 2 -23 7 -20 5 4 8 13 7 21 -4 25 -12 25 -14 -1z"/>
<path d="M565 310 c-3 -5 -1 -10 4 -10 6 0 11 5 11 10 0 6 -2 10 -4 10 -3 0
-8 -4 -11 -10z"/>
<path d="M1871 297 c-13 -21 -12 -21 5 -5 10 10 16 20 13 22 -3 3 -11 -5 -18
-17z"/>
<path d="M2110 305 c7 -9 15 -13 17 -11 7 7 -7 26 -19 26 -6 0 -6 -6 2 -15z"/>
<path d="M2140 310 c0 -5 7 -10 16 -10 8 0 12 5 9 10 -3 6 -10 10 -16 10 -5 0
-9 -4 -9 -10z"/>
<path d="M1562 289 c-24 -21 -29 -39 -11 -39 5 0 7 5 4 10 -3 6 -2 10 2 10 17
0 46 27 36 33 -5 4 -20 -3 -31 -14z"/>
<path d="M1660 299 c0 -5 5 -7 10 -4 6 3 10 8 10 11 0 2 -4 4 -10 4 -5 0 -10
-5 -10 -11z"/>
<path d="M1768 303 c7 -3 16 -2 19 1 4 3 -2 6 -13 5 -11 0 -14 -3 -6 -6z"/>
<path d="M60 289 c0 -5 5 -7 10 -4 6 3 10 8 10 11 0 2 -4 4 -10 4 -5 0 -10 -5
-10 -11z"/>
<path d="M770 289 c0 -5 5 -7 10 -4 6 3 10 8 10 11 0 2 -4 4 -10 4 -5 0 -10
-5 -10 -11z"/>
<path d="M1800 296 c0 -2 7 -7 16 -10 8 -3 12 -2 9 4 -6 10 -25 14 -25 6z"/>
<path d="M410 280 c-8 -5 -10 -10 -5 -10 6 0 17 5 25 10 8 5 11 10 5 10 -5 0
-17 -5 -25 -10z"/>
<path d="M1364 275 c-10 -8 -14 -15 -8 -15 5 0 19 7 30 15 10 8 14 15 8 15 -5
0 -19 -7 -30 -15z"/>
<path d="M1489 273 c-12 -16 -12 -17 1 -7 8 6 22 14 30 17 13 5 12 6 -1 6 -9
1 -23 -7 -30 -16z"/>
<path d="M2194 275 c3 -23 12 -26 13 -5 1 11 -2 20 -7 20 -4 0 -7 -7 -6 -15z"/>
<path d="M490 270 c-9 -6 -10 -10 -3 -10 6 0 15 5 18 10 8 12 4 12 -15 0z"/>
<path d="M2100 270 c-8 -5 -11 -10 -6 -10 5 0 3 -7 -4 -15 -7 -8 -8 -15 -3
-15 5 0 15 11 21 25 13 28 13 28 -8 15z"/>
<path d="M0 259 c0 -5 5 -7 10 -4 5 3 10 8 10 11 0 2 -4 4 -10 4 -5 0 -10 -5
-10 -11z"/>
<path d="M85 260 c-3 -5 -2 -10 4 -10 5 0 13 5 16 10 3 6 2 10 -4 10 -5 0 -13
-4 -16 -10z"/>
<path d="M770 255 c-7 -9 -8 -15 -2 -15 5 0 12 7 16 15 3 8 4 15 2 15 -2 0 -9
-7 -16 -15z"/>
<path d="M1306 253 c-6 -14 -5 -15 5 -6 7 7 10 15 7 18 -3 3 -9 -2 -12 -12z"/>
<path d="M1331 254 c0 -11 3 -14 6 -6 3 7 2 16 -1 19 -3 4 -6 -2 -5 -13z"/>
<path d="M1780 259 c0 -5 5 -7 10 -4 6 3 10 8 10 11 0 2 -4 4 -10 4 -5 0 -10
-5 -10 -11z"/>
<path d="M635 250 c-3 -5 -2 -10 4 -10 5 0 13 5 16 10 3 6 2 10 -4 10 -5 0
-13 -4 -16 -10z"/>
<path d="M1980 256 c0 -2 14 -6 30 -8 17 -3 30 -1 30 4 0 4 -13 8 -30 8 -16 0
-30 -2 -30 -4z"/>
<path d="M2124 244 c-18 -15 -18 -15 2 -5 12 6 25 7 29 3 5 -4 5 -1 1 6 -9 15
-8 15 -32 -4z"/>
<path d="M685 230 c3 -5 11 -10 16 -10 6 0 7 5 4 10 -3 6 -11 10 -16 10 -6 0
-7 -4 -4 -10z"/>
<path d="M1346 233 c-25 -7 -51 -32 -41 -41 3 -4 11 1 16 11 6 9 16 17 24 17
8 0 17 5 20 10 3 6 5 9 3 9 -2 -1 -12 -4 -22 -6z"/>
<path d="M1460 229 c0 -5 5 -7 10 -4 6 3 10 8 10 11 0 2 -4 4 -10 4 -5 0 -10
-5 -10 -11z"/>
<path d="M1540 230 c0 -5 7 -10 16 -10 8 0 12 5 9 10 -3 6 -10 10 -16 10 -5 0
-9 -4 -9 -10z"/>
<path d="M747 209 c7 -7 15 -10 18 -7 3 3 -2 9 -12 12 -14 6 -15 5 -6 -5z"/>
<path d="M1430 211 c0 -6 4 -13 10 -16 6 -3 7 1 4 9 -7 18 -14 21 -14 7z"/>
<path d="M1615 210 c-11 -5 -14 -9 -7 -9 7 -1 10 -5 7 -11 -3 -5 1 -10 10 -10
9 0 13 5 9 11 -3 6 0 15 7 20 18 11 0 10 -26 -1z"/>
<path d="M2164 212 c3 -6 -3 -14 -16 -18 -21 -7 -20 -8 12 -15 19 -4 38 -5 42
-3 11 7 10 34 -1 34 -5 0 -17 3 -27 7 -11 4 -15 3 -10 -5z"/>
<path d="M660 200 c-8 -5 -12 -12 -9 -15 4 -3 12 1 19 10 14 17 11 19 -10 5z"/>
<path d="M1365 200 c3 -5 8 -10 11 -10 2 0 4 5 4 10 0 6 -5 10 -11 10 -5 0 -7
-4 -4 -10z"/>
<path d="M1500 200 c-9 -6 -10 -10 -3 -10 6 0 15 5 18 10 8 12 4 12 -15 0z"/>
<path d="M1705 202 c-13 -9 -17 -32 -6 -32 5 0 11 9 14 20 6 22 6 22 -8 12z"/>
<path d="M1340 185 c0 -8 4 -15 10 -15 5 0 7 7 4 15 -4 8 -8 15 -10 15 -2 0
-4 -7 -4 -15z"/>
<path d="M2065 190 c-3 -5 1 -10 10 -10 9 0 13 5 10 10 -3 6 -8 10 -10 10 -2
0 -7 -4 -10 -10z"/>
<path d="M1562 174 c14 -14 21 -15 30 -6 8 8 9 12 1 12 -6 0 -20 3 -30 6 -17
7 -17 6 -1 -12z"/>
<path d="M2100 169 c0 -5 5 -7 10 -4 6 3 10 8 10 11 0 2 -4 4 -10 4 -5 0 -10
-5 -10 -11z"/>
<path d="M575 160 c-3 -6 1 -7 9 -4 18 7 21 14 7 14 -6 0 -13 -4 -16 -10z"/>
<path d="M665 160 c-16 -7 -17 -9 -3 -9 9 -1 20 4 23 9 7 11 7 11 -20 0z"/>
<path d="M1496 161 c-3 -5 -22 -12 -42 -16 -35 -6 -35 -7 -18 -24 10 -9 26
-17 37 -17 18 0 18 1 0 14 -16 12 -13 13 22 6 39 -7 40 -6 22 13 -9 11 -14 23
-10 26 3 4 4 7 0 7 -3 0 -8 -4 -11 -9z"/>
<path d="M1190 145 c-10 -12 -10 -15 4 -15 9 0 16 7 16 15 0 8 -2 15 -4 15 -2
0 -9 -7 -16 -15z"/>
<path d="M1300 150 c0 -5 5 -10 11 -10 5 0 7 5 4 10 -3 6 -8 10 -11 10 -2 0
-4 -4 -4 -10z"/>
<path d="M1530 150 c0 -5 5 -10 10 -10 6 0 10 5 10 10 0 6 -4 10 -10 10 -5 0
-10 -4 -10 -10z"/>
<path d="M1649 138 c15 -21 61 -21 54 -1 -4 10 -9 11 -19 2 -11 -9 -18 -8 -31
2 -16 13 -17 12 -4 -3z"/>
<path d="M2126 141 c-11 -4 -20 -15 -22 -24 -3 -23 5 -21 41 8 29 24 21 32
-19 16z"/>
<path d="M1131 126 c-16 -19 -11 -29 8 -17 7 5 12 14 9 21 -3 9 -8 7 -17 -4z"/>
<path d="M1220 136 c0 -2 11 -6 25 -8 14 -3 25 -1 25 3 0 5 -11 9 -25 9 -14 0
-25 -2 -25 -4z"/>
<path d="M1361 114 c13 -16 74 -20 64 -4 -4 6 -11 8 -16 5 -5 -4 -15 -3 -21 2
-7 4 -19 8 -26 9 -10 2 -11 -1 -1 -12z"/>
<path d="M2052 118 c5 -15 28 -23 28 -10 0 5 -7 13 -16 16 -10 4 -14 1 -12 -6z"/>
<path d="M230 104 c0 -8 5 -12 10 -9 6 3 10 10 10 16 0 5 -4 9 -10 9 -5 0 -10
-7 -10 -16z"/>
<path d="M635 110 c-3 -6 1 -7 9 -4 18 7 21 14 7 14 -6 0 -13 -4 -16 -10z"/>
<path d="M1175 106 c-16 -12 -17 -16 -6 -30 7 -9 18 -16 24 -16 7 0 7 4 -1 12
-7 7 -8 17 -1 30 12 22 9 22 -16 4z"/>
<path d="M1572 100 c-12 -11 -32 -25 -44 -30 -21 -8 -21 -9 -3 -9 23 -1 33 5
59 37 24 28 17 29 -12 2z"/>
<path d="M731 101 c-14 -4 -26 -13 -29 -21 -3 -12 -2 -13 6 -1 5 7 14 11 20 7
6 -3 14 -1 18 5 4 8 9 7 15 -2 6 -10 9 -10 9 -2 0 17 -11 21 -39 14z"/>
<path d="M1260 100 c-9 -6 -10 -10 -3 -10 6 0 15 5 18 10 8 12 4 12 -15 0z"/>
<path d="M1312 98 c7 -19 38 -22 38 -4 0 10 -9 16 -21 16 -12 0 -19 -5 -17
-12z"/>
<path d="M2040 90 c0 -5 5 -10 11 -10 5 0 7 5 4 10 -3 6 -8 10 -11 10 -2 0 -4
-4 -4 -10z"/>
<path d="M2137 89 c-9 -5 -22 -7 -27 -4 -6 3 -10 1 -10 -4 0 -13 77 -15 84 -2
3 5 -1 12 -10 15 -19 7 -15 8 -37 -5z"/>
<path d="M125 80 c-3 -5 -1 -10 4 -10 6 0 11 5 11 10 0 6 -2 10 -4 10 -3 0 -8
-4 -11 -10z"/>
<path d="M1450 80 c-14 -4 -20 -9 -15 -10 6 -1 1 -5 -9 -9 -11 -4 -15 -10 -10
-13 5 -3 27 6 49 18 40 23 33 29 -15 14z"/>
<path d="M1675 80 c3 -5 8 -10 11 -10 2 0 4 5 4 10 0 6 -5 10 -11 10 -5 0 -7
-4 -4 -10z"/>
<path d="M1730 82 c0 -5 7 -9 15 -9 8 0 12 4 9 9 -3 4 -9 8 -15 8 -5 0 -9 -4
-9 -8z"/>
<path d="M2006 74 c-9 -24 -7 -27 9 -10 17 17 19 26 6 26 -5 0 -12 -7 -15 -16z"/>
<path d="M1095 70 c3 -5 8 -10 11 -10 2 0 4 5 4 10 0 6 -5 10 -11 10 -5 0 -7
-4 -4 -10z"/>
<path d="M1287 73 c-12 -12 -7 -22 8 -17 8 4 15 10 15 15 0 11 -14 12 -23 2z"/>
<path d="M1803 67 c0 -7 16 -12 39 -12 37 -1 56 14 21 16 -10 0 -27 2 -39 4
-12 3 -21 -1 -21 -8z"/>
<path d="M727 57 c-12 -9 -13 -14 -4 -22 14 -11 67 -14 67 -4 0 11 -29 19 -47
13 -15 -5 -15 -4 -3 5 8 5 12 12 9 15 -3 3 -13 0 -22 -7z"/>
<path d="M768 58 c6 -6 18 -8 28 -6 14 3 12 5 -9 10 -19 3 -25 2 -19 -4z"/>
<path d="M1118 56 c-15 -11 -12 -13 27 -12 40 1 42 2 22 13 -27 15 -28 15 -49
-1z"/>
<path d="M1385 60 c-3 -5 -1 -10 4 -10 6 0 11 5 11 10 0 6 -2 10 -4 10 -3 0
-8 -4 -11 -10z"/>
<path d="M1598 58 c-28 -6 -48 -16 -48 -23 0 -10 7 -11 28 -5 44 13 82 29 82
35 0 6 0 6 -62 -7z"/>
<path d="M1700 59 c0 -5 5 -7 10 -4 6 3 10 8 10 11 0 2 -4 4 -10 4 -5 0 -10
-5 -10 -11z"/>
<path d="M1920 60 c0 -5 5 -10 11 -10 5 0 7 5 4 10 -3 6 -8 10 -11 10 -2 0 -4
-4 -4 -10z"/>
<path d="M175 50 c4 -6 11 -8 16 -5 14 9 11 15 -7 15 -8 0 -12 -5 -9 -10z"/>
<path d="M1480 45 c-8 -9 -8 -15 -2 -15 12 0 26 19 19 26 -2 2 -10 -2 -17 -11z"/>
<path d="M350 35 c-11 -13 -10 -14 4 -9 9 3 16 10 16 15 0 13 -6 11 -20 -6z"/>
<path d="M615 40 c3 -5 10 -10 16 -10 5 0 9 5 9 10 0 6 -7 10 -16 10 -8 0 -12
-4 -9 -10z"/>
<path d="M1252 39 c2 -7 12 -13 21 -15 23 -3 21 3 -4 17 -17 8 -20 8 -17 -2z"/>
<path d="M205 30 c-3 -5 -2 -10 4 -10 5 0 13 5 16 10 3 6 2 10 -4 10 -5 0 -13
-4 -16 -10z"/>
<path d="M1020 30 c0 -5 7 -7 15 -4 8 4 15 8 15 10 0 2 -7 4 -15 4 -8 0 -15
-4 -15 -10z"/>
<path d="M1075 30 c-3 -5 -1 -10 4 -10 6 0 11 5 11 10 0 6 -2 10 -4 10 -3 0
-8 -4 -11 -10z"/>
<path d="M1960 29 c0 -5 5 -7 10 -4 6 3 10 8 10 11 0 2 -4 4 -10 4 -5 0 -10
-5 -10 -11z"/>
<path d="M385 20 c-3 -5 -2 -10 4 -10 5 0 13 5 16 10 3 6 2 10 -4 10 -5 0 -13
-4 -16 -10z"/>
<path d="M1346 17 c3 -10 9 -15 12 -12 3 3 0 11 -7 18 -10 9 -11 8 -5 -6z"/>
<path d="M1420 14 c0 -8 5 -12 10 -9 6 3 10 10 10 16 0 5 -4 9 -10 9 -5 0 -10
-7 -10 -16z"/>
<path d="M1640 20 c0 -5 14 -10 30 -10 17 0 30 5 30 10 0 6 -13 10 -30 10 -16
0 -30 -4 -30 -10z"/>
<path d="M1750 20 c0 -5 5 -10 10 -10 6 0 10 5 10 10 0 6 -4 10 -10 10 -5 0
-10 -4 -10 -10z"/>
<path d="M1822 21 c-10 -6 -8 -10 9 -14 26 -7 34 -3 24 12 -7 13 -15 14 -33 2z"/>
<path d="M1916 20 c-19 -6 -19 -7 2 -12 12 -4 24 -2 27 2 8 13 -8 18 -29 10z"/>
<path d="M2120 20 c0 -5 9 -10 21 -10 11 0 17 4 14 10 -3 6 -13 10 -21 10 -8
0 -14 -4 -14 -10z"/>
<path d="M115 10 c-3 -5 -2 -10 4 -10 5 0 13 5 16 10 3 6 2 10 -4 10 -5 0 -13
-4 -16 -10z"/>
<path d="M575 10 c-18 -8 -17 -9 8 -9 15 -1 27 4 27 9 0 12 -8 12 -35 0z"/>
<path d="M650 10 c0 -5 5 -10 10 -10 6 0 10 5 10 10 0 6 -4 10 -10 10 -5 0
-10 -4 -10 -10z"/>
<path d="M1225 10 c-4 -6 7 -10 27 -9 27 0 30 2 13 9 -27 12 -33 12 -40 0z"/>
<path d="M1470 10 c0 -5 5 -10 11 -10 5 0 7 5 4 10 -3 6 -8 10 -11 10 -2 0 -4
-4 -4 -10z"/>
<path d="M2044 9 c-3 -5 9 -9 25 -9 17 0 31 2 31 4 0 8 -51 13 -56 5z"/>
<path d="M2188 3 c7 -3 16 -2 19 1 4 3 -2 6 -13 5 -11 0 -14 -3 -6 -6z"/>
</g>
</svg>
